<?xml version="1.0" standalone="no"?>
<!DOCTYPE svg PUBLIC "-//W3C//DTD SVG 20010904//EN"
 "http://www.w3.org/TR/2001/REC-SVG-20010904/DTD/svg10.dtd">
<svg version="1.0" xmlns="http://www.w3.org/2000/svg"
 width="1144.000000pt" height="1144.000000pt" viewBox="0 0 1144.000000 1144.000000"
 preserveAspectRatio="xMidYMid meet">
<metadata>
Created by potrace 1.14, written by Peter Selinger 2001-2017
</metadata>
<g transform="translate(0.000000,1144.000000) scale(0.100000,-0.100000)"
fill="#000000" stroke="none">
<path d="M0 5720 l0 -5720 5720 0 5720 0 0 5720 0 5720 -5720 0 -5720 0 0
-5720z m2625 1414 c202 -50 401 -251 454 -459 25 -97 189 -1088 197 -1189 13
-162 -52 -344 -167 -470 -69 -75 -108 -100 -359 -228 -434 -221 -662 -319
-791 -339 -96 -15 -344 -6 -424 15 -69 19 -245 101 -308 145 -87 59 -200 177
-395 409 -309 370 -345 425 -372 570 -43 232 57 500 234 632 31 22 246 151
478 286 233 136 491 286 573 334 478 280 484 283 620 306 88 14 168 10 260
-12z m5097 -674 c103 -35 155 -62 241 -127 l57 -44 -57 -69 c-32 -38 -62 -69
-67 -69 -4 -1 -25 13 -45 31 -19 17 -73 49 -118 70 -330 155 -706 -25 -773
-370 -43 -219 54 -430 250 -545 101 -58 156 -72 295 -72 136 1 186 15 294 85
l61 40 0 130 0 130 -89 0 -88 0 -28 63 c-15 34 -34 77 -41 95 l-14 32 225 0
225 0 0 -264 0 -264 -62 -57 c-130 -118 -271 -173 -464 -182 -93 -5 -137 -2
-196 11 -100 22 -238 90 -316 155 -150 125 -252 350 -252 557 0 197 99 406
249 531 196 162 473 213 713 133z m2853 9 c100 -30 213 -90 269 -141 l48 -43
-57 -68 c-32 -37 -59 -67 -61 -67 -2 0 -37 22 -79 49 -90 59 -160 87 -257 102
-91 14 -160 5 -234 -30 -67 -32 -106 -70 -128 -123 -39 -92 -7 -168 84 -205
44 -17 85 -23 205 -28 210 -9 285 -20 370 -56 135 -56 194 -132 214 -273 33
-235 -99 -413 -361 -486 -109 -30 -292 -38 -394 -15 -132 29 -256 98 -353 198
l-54 56 69 65 69 65 60 -58 c109 -104 194 -139 350 -148 118 -7 190 6 275 48
93 47 150 128 150 215 0 44 -39 113 -79 139 -49 32 -144 55 -232 55 -321 1
-491 59 -565 192 -27 49 -29 61 -29 158 0 94 3 111 27 160 66 135 201 231 368
264 60 12 256 -3 325 -25z m-4585 -121 c56 -119 232 -491 541 -1146 27 -57 49
-105 49 -108 0 -2 -47 -4 -105 -4 l-106 0 -45 99 c-40 85 -50 100 -73 103 -14
2 -152 1 -306 -3 -260 -5 -285 -7 -349 -29 -85 -29 -143 -72 -174 -128 l-23
-42 -100 0 c-54 0 -99 4 -99 9 0 5 131 279 290 609 160 330 290 605 290 612 0
6 -14 43 -31 82 -25 57 -28 72 -17 79 7 5 53 9 101 9 l88 0 69 -142z m2999 95
c13 -27 118 -248 233 -493 116 -245 253 -534 304 -644 52 -109 94 -203 94
-208 0 -5 -43 -8 -102 -6 l-103 3 -46 94 c-27 57 -53 97 -65 101 -27 10 -507
1 -582 -11 -120 -19 -232 -87 -263 -160 l-11 -29 -99 0 c-54 0 -100 3 -102 8
-3 4 70 160 160 347 91 187 223 460 294 607 l129 267 -34 78 c-25 56 -31 80
-23 85 7 4 53 8 103 8 l90 0 23 -47z m-4326 2 c129 -34 201 -90 251 -194 26
-58 30 -76 30 -161 0 -83 -3 -103 -27 -153 -14 -32 -41 -72 -59 -89 -31 -28
-31 -30 -13 -40 37 -20 108 -103 131 -153 92 -201 22 -420 -161 -501 -122 -53
-143 -56 -562 -61 l-393 -5 0 686 0 686 373 0 c298 0 384 -3 430 -15z"/>
<path d="M2356 7019 c-26 -5 -76 -22 -110 -38 -52 -24 -487 -274 -826 -475
-58 -35 -208 -123 -335 -196 -286 -166 -332 -197 -382 -257 -97 -117 -128
-208 -121 -359 4 -91 8 -109 40 -175 43 -89 77 -136 229 -311 63 -73 159 -186
212 -250 152 -184 257 -266 418 -328 239 -92 473 -75 751 54 144 67 653 322
696 350 60 37 129 122 169 205 34 69 37 85 41 181 3 91 -3 146 -47 410 -28
168 -66 404 -86 525 -53 330 -80 410 -175 517 -95 108 -321 178 -474 147z"/>
<path d="M5857 6024 c-14 -27 -64 -134 -112 -239 -48 -104 -105 -228 -126
-274 -22 -46 -38 -86 -36 -88 2 -2 21 4 43 13 93 39 139 46 347 51 132 3 207
9 207 16 0 5 -34 76 -76 156 -42 80 -106 202 -142 271 -36 69 -68 129 -73 134
-4 5 -19 -13 -32 -40z"/>
<path d="M8847 5908 c-170 -364 -224 -483 -221 -486 1 -2 31 7 66 21 89 35
182 47 372 47 91 0 166 2 166 5 0 11 -295 575 -301 575 -3 0 -40 -73 -82 -162z"/>
<path d="M4048 6060 c-2 -117 -1 -213 0 -215 2 -2 28 5 57 15 76 26 114 30
341 38 l201 7 38 29 c108 82 94 261 -24 315 -30 13 -83 16 -323 19 l-287 3 -3
-211z"/>
<path d="M4200 5690 c-59 -10 -122 -28 -138 -38 -9 -7 -12 -51 -10 -186 l3
-177 235 -3 c328 -6 413 10 491 90 33 34 34 37 34 117 0 102 -21 137 -104 176
-54 25 -63 26 -261 28 -113 1 -225 -2 -250 -7z"/>
</g>
</svg>
